<svg width="258" height="44" viewBox="0 0 258 44" fill="none" xmlns="http://www.w3.org/2000/svg">
<g filter="url(#filter0_d_59_50)">
<path d="M21.7647 32.7441C20.5823 31.7987 19.0985 31.2782 17.5865 31.2782H14.3918C16.463 32.9781 19.1093 33.9999 21.9995 33.9999C22.6456 33.9999 23.2808 33.9493 23.9003 33.8503C23.0993 33.5016 22.1465 33.0504 21.7647 32.7441Z" fill="#BCFFA0"/>
<g filter="url(#filter1_d_59_50)">
<path d="M18.1287 13.0847H13.9838C13.5725 13.4548 13.1832 13.8478 12.8255 14.2705H17.7413C17.9487 14.2705 18.1163 14.4385 18.1163 14.6455C18.1163 14.8525 17.9487 15.0205 17.7413 15.0205H12.2461C11.7256 15.7468 11.2857 16.5325 10.9362 17.3672H17.7417C18.0526 17.3672 18.3481 17.2446 18.5738 17.0222C18.7925 16.8006 18.9151 16.5051 18.9151 16.1938C18.9151 15.9868 19.0827 15.8188 19.2901 15.8188C19.4975 15.8188 19.6651 15.9868 19.6651 16.1938C19.6651 16.7035 19.466 17.1861 19.1041 17.5528C18.7336 17.9181 18.2513 18.1172 17.7417 18.1172H10.6531C10.5207 18.5046 10.4078 18.8995 10.3145 19.303H18.1287C18.9608 19.303 19.7405 18.9793 20.3243 18.3913C20.9135 17.8056 21.2375 17.026 21.2375 16.1938C21.2375 14.4797 19.8428 13.0847 18.1287 13.0847Z" fill="#BCFFA0"/>
</g>
<g filter="url(#filter2_d_59_50)">
<path d="M27.0316 23.1491C26.1995 23.1491 25.4199 23.4727 24.836 24.0603C24.2469 24.6461 23.9229 25.4261 23.9229 26.2578C23.9229 27.9719 25.3175 29.3666 27.0316 29.3666H31.4679C31.763 28.9882 32.0349 28.5926 32.282 28.1812H29.3544C29.147 28.1812 28.9794 28.0132 28.9794 27.8062C28.9794 27.5992 29.147 27.4312 29.3544 27.4312H32.6934C33.0721 26.6898 33.3736 25.9057 33.5926 25.0844H27.4186C27.1077 25.0844 26.8122 25.2071 26.5865 25.4294C26.3679 25.6511 26.2452 25.9466 26.2452 26.2578C26.2452 26.9047 26.7714 27.4312 27.4186 27.4312C27.626 27.4312 27.7936 27.5992 27.7936 27.8062C27.7936 28.0132 27.626 28.1812 27.4186 28.1812C26.3581 28.1812 25.4952 27.3183 25.4952 26.2578C25.4952 25.7482 25.6944 25.2656 26.0562 24.8988C26.4267 24.5332 26.9094 24.3341 27.4186 24.3341H33.7715C33.8476 23.9456 33.905 23.5503 33.9421 23.1487L27.0316 23.1491Z" fill="#BCFFA0"/>
</g>
<g filter="url(#filter3_d_59_50)">
<path d="M27.0317 30.1169C25.0307 30.1169 23.3811 28.5854 23.1921 26.6331H21.2256C21.0183 26.6331 20.8506 26.4651 20.8506 26.2581C20.8506 26.0511 21.0183 25.8831 21.2256 25.8831H23.1914C23.2765 24.9921 23.6646 24.1675 24.3059 23.53C25.03 22.8014 25.9986 22.399 27.0321 22.399H33.9861C33.9906 22.2659 34 22.1335 34 22C34 21.736 33.9884 21.4742 33.9719 21.2136H26.6451C26.4378 21.2136 26.2701 21.0456 26.2701 20.8386C26.2701 20.6316 26.4378 20.4636 26.6451 20.4636H33.9002C33.8312 19.9285 33.7278 19.4031 33.5898 18.8909H25.8711C24.6546 18.8909 23.4899 19.3754 22.6769 20.2199C21.5755 21.3599 20.0984 21.9876 18.5163 21.9876H16.1939C15.9865 21.9876 15.8189 21.8196 15.8189 21.6126C15.8189 21.4056 15.9865 21.2376 16.1939 21.2376H18.5163C19.8929 21.2376 21.1788 20.6912 22.1365 19.699C23.0901 18.7086 24.4514 18.1405 25.8708 18.1405H33.361C33.1776 17.5982 32.9552 17.0732 32.6976 16.5681H26.2577C26.0504 16.5681 25.8827 16.4001 25.8827 16.1931C25.8827 15.9861 26.0504 15.8181 26.2577 15.8181H32.2795C31.8599 15.1206 31.3742 14.4651 30.8256 13.8704C28.6345 11.4902 25.4913 10 21.9996 10C20.9129 10 19.8617 10.1462 18.862 10.4162C20.3117 10.5014 21.6561 11.1107 22.6758 12.1664C23.4891 13.0112 24.6535 13.4957 25.8704 13.4957H28.1931C28.4005 13.4957 28.5681 13.6637 28.5681 13.8707C28.5681 14.0777 28.4005 14.2457 28.1931 14.2457H25.8704C24.451 14.2457 23.0897 13.6776 22.1357 12.6869C21.178 11.6954 19.8925 11.149 18.5159 11.149H16.8719C16.1744 11.4797 15.5189 11.8817 14.9028 12.3344H18.1285C20.2562 12.3344 21.9872 14.0654 21.9872 16.1935C21.9872 17.2266 21.5849 18.1956 20.8544 18.9212C20.1299 19.6499 19.1613 20.0522 18.1281 20.0522H10.1665C10.1028 20.4422 10.0585 20.8375 10.0341 21.2376H14.2574C14.4647 21.2376 14.6324 21.4056 14.6324 21.6126C14.6324 21.8196 14.4647 21.9876 14.2574 21.9876H10.0075C10.0049 21.9876 10.0026 21.9861 10 21.9861V21.9996C10 22.5287 10.0435 23.0477 10.1099 23.56H19.2899C20.5067 23.56 21.6711 23.0755 22.4841 22.231C23.0575 21.6377 23.7333 21.1825 24.4934 20.8772C24.6854 20.8 24.904 20.8937 24.9809 21.0857C25.0581 21.2781 24.9648 21.4964 24.7724 21.5736C24.1109 21.8391 23.5229 22.2355 23.0238 22.7519C22.0705 23.7419 20.7093 24.31 19.2899 24.31H10.2254C10.3307 24.8485 10.4714 25.3727 10.6457 25.8827H17.7419C17.9493 25.8827 18.1169 26.0507 18.1169 26.2577C18.1169 26.4647 17.9493 26.6327 17.7419 26.6327H10.9315C11.2172 27.3152 11.5626 27.9681 11.962 28.5801C12.4281 29.2859 12.9689 29.9376 13.5685 30.5301C13.5726 30.5301 13.5764 30.5279 13.5805 30.5279H17.5866C19.2678 30.5279 20.9185 31.1069 22.2336 32.1584C22.7155 32.545 24.5661 33.3317 25.1777 33.5721C26.3901 33.2395 27.526 32.7227 28.5524 32.0522H26.6444C25.0622 32.0522 23.5851 31.4245 22.4841 30.2849C21.6708 29.44 20.5064 28.9555 19.2895 28.9555H14.2574C14.05 28.9555 13.8824 28.7875 13.8824 28.5805C13.8824 28.3735 14.05 28.2055 14.2574 28.2055H19.2899C20.7093 28.2055 22.0705 28.7736 23.0245 29.7644C23.9823 30.7559 25.2677 31.3022 26.6444 31.3022H29.5758C30.0228 30.9381 30.4405 30.541 30.8301 30.1165L27.0317 30.1169ZM24.7836 15.8185C24.9906 15.8185 25.1586 15.9865 25.1586 16.1935C25.1586 16.4005 24.9906 16.5685 24.7836 16.5685C24.5766 16.5685 24.4086 16.4005 24.4086 16.1935C24.4086 15.9865 24.5766 15.8185 24.7836 15.8185ZM19.3746 26.6331C19.1676 26.6331 18.9996 26.4651 18.9996 26.2581C18.9996 26.0511 19.1676 25.8831 19.3746 25.8831C19.5816 25.8831 19.7496 26.0511 19.7496 26.2581C19.7496 26.4651 19.5816 26.6331 19.3746 26.6331Z" fill="#BCFFA0"/>
</g>
</g>
<g filter="url(#filter4_d_59_50)">
<path d="M45.7505 31H49.0145V16.768H54.4625V13.72H40.3025V16.768H45.7505V31ZM63.8116 18.04V24.616C63.8116 27.832 62.1796 28.312 61.0516 28.312C58.2676 28.312 58.2676 25.336 58.2676 24.16V18.04H54.9556V25.312C54.9556 26.392 54.9556 31.384 60.0196 31.384C61.8796 31.384 63.2836 30.712 64.2196 29.668V31H67.0996V18.04H63.8116ZM74.7254 18.664C74.1254 19.012 73.6694 19.528 73.3334 20.128V18.04H70.4534V31H73.7414V24.376C73.7414 22.888 74.3654 21.832 75.5174 21.304C76.2854 20.944 77.3414 20.872 78.0614 21.088V18.04C76.8854 17.896 75.6614 18.088 74.7254 18.664ZM87.4241 17.656C85.5641 17.656 84.1601 18.328 83.2241 19.372V18.04H80.3201V31H83.6321V24.424C83.6321 21.208 85.2641 20.728 86.3921 20.728C89.1761 20.728 89.1761 23.704 89.1761 24.88V31H92.4881V23.728C92.4881 22.648 92.4881 17.656 87.4241 17.656ZM100.666 31.36C104.05 31.36 106.09 29.752 106.09 27.088C106.09 25.072 104.962 24.016 102.01 23.248C98.9859 22.48 98.5539 22.264 98.5539 21.592C98.5539 20.848 99.3459 20.416 100.546 20.488C101.77 20.584 102.514 21.16 102.634 22.12L105.97 21.52C105.634 19.168 103.522 17.68 100.474 17.68C97.3299 17.68 95.3139 19.264 95.3139 21.76C95.3139 23.752 96.4659 24.76 99.6339 25.576C102.442 26.32 102.754 26.488 102.754 27.256C102.754 28.072 102.082 28.552 100.906 28.552C99.4659 28.552 98.4819 27.832 98.2179 26.608L94.8819 27.112C95.3139 29.824 97.4019 31.36 100.666 31.36ZM112.759 20.56H116.503V18.04H112.759V14.44H109.495V18.04H107.287V20.56H109.495V25.504C109.495 27.064 109.375 28.216 110.023 29.392C111.079 31.288 113.815 31.504 116.503 31V28.288C114.967 28.504 113.599 28.552 113.023 27.64C112.711 27.16 112.759 26.32 112.759 25.312V20.56ZM119.631 16.24H122.895V13.36H119.631V16.24ZM119.631 31H122.895V18.04H119.631V31ZM126.733 31H129.997V13.36H126.733V31ZM136.39 25.432H145.486C145.882 20.728 143.506 17.68 139.426 17.68C135.586 17.68 132.874 20.44 132.874 24.688C132.874 28.576 135.634 31.36 139.618 31.36C142.114 31.36 144.394 29.992 145.378 27.616L142.114 26.68C141.634 27.736 140.698 28.312 139.426 28.312C137.662 28.312 136.63 27.28 136.39 25.432ZM139.57 20.512C141.142 20.512 141.958 21.256 142.186 23.008H136.474C136.81 21.364 137.818 20.512 139.57 20.512ZM147.956 24.688H155.156V22.168H147.956V24.688ZM158.274 31H161.538V23.992H167.394V20.728H161.538V16.984H168.834V13.72H158.274V31ZM171.24 16.24H174.504V13.36H171.24V16.24ZM171.24 31H174.504V18.04H171.24V31ZM185.182 17.656C183.322 17.656 181.918 18.328 180.982 19.372V18.04H178.078V31H181.39V24.424C181.39 21.208 183.022 20.728 184.15 20.728C186.934 20.728 186.934 23.704 186.934 24.88V31H190.246V23.728C190.246 22.648 190.246 17.656 185.182 17.656ZM203.704 20.032C202.792 18.304 200.92 17.68 198.64 17.68C195.52 17.68 193.744 19.168 193.096 21.304L196.048 22.24C196.456 21.064 197.68 20.656 198.64 20.656C200.176 20.656 200.884 21.208 201.016 22.42C198.58 22.78 196.72 23.056 195.472 23.512C193.384 24.28 192.64 25.624 192.64 27.424C192.64 29.584 194.176 31.36 196.96 31.36C198.952 31.36 200.224 30.784 201.376 29.416V31H204.232V23.08C204.232 21.904 204.208 20.992 203.704 20.032ZM200.656 27.064C200.392 27.616 199.456 28.792 197.656 28.792C196.528 28.792 195.832 28.264 195.832 27.376C195.832 26.728 196.216 26.272 197.176 25.888C197.92 25.612 198.808 25.432 200.992 25.06C200.98 25.684 200.932 26.5 200.656 27.064ZM214.432 17.656C212.572 17.656 211.168 18.328 210.232 19.372V18.04H207.328V31H210.64V24.424C210.64 21.208 212.272 20.728 213.4 20.728C216.184 20.728 216.184 23.704 216.184 24.88V31H219.496V23.728C219.496 22.648 219.496 17.656 214.432 17.656ZM228.087 31.36C231.087 31.36 233.223 29.824 233.967 27.064L230.631 26.368C230.247 27.616 229.551 28.312 228.087 28.312C226.119 28.312 225.111 26.776 225.111 24.52C225.111 22.36 226.023 20.728 228.087 20.728C229.287 20.728 230.319 21.52 230.703 22.864L233.967 22C233.391 19.336 231.183 17.68 228.135 17.68C224.175 17.68 221.655 20.584 221.655 24.52C221.655 28.408 224.055 31.36 228.087 31.36ZM238.812 25.432H247.908C248.304 20.728 245.928 17.68 241.848 17.68C238.008 17.68 235.296 20.44 235.296 24.688C235.296 28.576 238.056 31.36 242.04 31.36C244.536 31.36 246.816 29.992 247.8 27.616L244.536 26.68C244.056 27.736 243.12 28.312 241.848 28.312C240.084 28.312 239.052 27.28 238.812 25.432ZM241.992 20.512C243.564 20.512 244.38 21.256 244.608 23.008H238.896C239.232 21.364 240.24 20.512 241.992 20.512Z" fill="#BCFFA0"/>
</g>
<defs>
<filter id="filter0_d_59_50" x="0" y="0" width="44" height="44" filterUnits="userSpaceOnUse" color-interpolation-filters="sRGB">
<feFlood flood-opacity="0" result="BackgroundImageFix"/>
<feColorMatrix in="SourceAlpha" type="matrix" values="0 0 0 0 0 0 0 0 0 0 0 0 0 0 0 0 0 0 2 0" result="hardAlpha"/>
<feOffset/>
<feGaussianBlur stdDeviation="5"/>
<feComposite in2="hardAlpha" operator="out"/>
<feColorMatrix type="matrix" values="0 0 0 0 0.737255 0 0 0 0 1 0 0 0 0 0.627451 0 0 0 0.6 0"/>
<feBlend mode="normal" in2="BackgroundImageFix" result="effect1_dropShadow_59_50"/>
<feBlend mode="normal" in="SourceGraphic" in2="effect1_dropShadow_59_50" result="shape"/>
</filter>
<filter id="filter1_d_59_50" x="6.31445" y="13.0847" width="18.923" height="14.2183" filterUnits="userSpaceOnUse" color-interpolation-filters="sRGB">
<feFlood flood-opacity="0" result="BackgroundImageFix"/>
<feColorMatrix in="SourceAlpha" type="matrix" values="0 0 0 0 0 0 0 0 0 0 0 0 0 0 0 0 0 0 127 0" result="hardAlpha"/>
<feOffset dy="4"/>
<feGaussianBlur stdDeviation="2"/>
<feComposite in2="hardAlpha" operator="out"/>
<feColorMatrix type="matrix" values="0 0 0 0 0 0 0 0 0 0 0 0 0 0 0 0 0 0 0.25 0"/>
<feBlend mode="normal" in2="BackgroundImageFix" result="effect1_dropShadow_59_50"/>
<feBlend mode="normal" in="SourceGraphic" in2="effect1_dropShadow_59_50" result="shape"/>
</filter>
<filter id="filter2_d_59_50" x="19.9229" y="23.1487" width="18.0193" height="14.2179" filterUnits="userSpaceOnUse" color-interpolation-filters="sRGB">
<feFlood flood-opacity="0" result="BackgroundImageFix"/>
<feColorMatrix in="SourceAlpha" type="matrix" values="0 0 0 0 0 0 0 0 0 0 0 0 0 0 0 0 0 0 127 0" result="hardAlpha"/>
<feOffset dy="4"/>
<feGaussianBlur stdDeviation="2"/>
<feComposite in2="hardAlpha" operator="out"/>
<feColorMatrix type="matrix" values="0 0 0 0 0 0 0 0 0 0 0 0 0 0 0 0 0 0 0.25 0"/>
<feBlend mode="normal" in2="BackgroundImageFix" result="effect1_dropShadow_59_50"/>
<feBlend mode="normal" in="SourceGraphic" in2="effect1_dropShadow_59_50" result="shape"/>
</filter>
<filter id="filter3_d_59_50" x="6" y="10" width="32" height="31.5721" filterUnits="userSpaceOnUse" color-interpolation-filters="sRGB">
<feFlood flood-opacity="0" result="BackgroundImageFix"/>
<feColorMatrix in="SourceAlpha" type="matrix" values="0 0 0 0 0 0 0 0 0 0 0 0 0 0 0 0 0 0 127 0" result="hardAlpha"/>
<feOffset dy="4"/>
<feGaussianBlur stdDeviation="2"/>
<feComposite in2="hardAlpha" operator="out"/>
<feColorMatrix type="matrix" values="0 0 0 0 0 0 0 0 0 0 0 0 0 0 0 0 0 0 0.25 0"/>
<feBlend mode="normal" in2="BackgroundImageFix" result="effect1_dropShadow_59_50"/>
<feBlend mode="normal" in="SourceGraphic" in2="effect1_dropShadow_59_50" result="shape"/>
</filter>
<filter id="filter4_d_59_50" x="29.3025" y="3.35999" width="228.001" height="38.144" filterUnits="userSpaceOnUse" color-interpolation-filters="sRGB">
<feFlood flood-opacity="0" result="BackgroundImageFix"/>
<feColorMatrix in="SourceAlpha" type="matrix" values="0 0 0 0 0 0 0 0 0 0 0 0 0 0 0 0 0 0 127 0" result="hardAlpha"/>
<feOffset dx="-1"/>
<feGaussianBlur stdDeviation="5"/>
<feComposite in2="hardAlpha" operator="out"/>
<feColorMatrix type="matrix" values="0 0 0 0 0.737255 0 0 0 0 1 0 0 0 0 0.627451 0 0 0 0.6 0"/>
<feBlend mode="normal" in2="BackgroundImageFix" result="effect1_dropShadow_59_50"/>
<feBlend mode="normal" in="SourceGraphic" in2="effect1_dropShadow_59_50" result="shape"/>
</filter>
</defs>
</svg>
