<svg width="80" height="80" viewBox="0 0 80 80" fill="none" xmlns="http://www.w3.org/2000/svg">
<g clip-path="url(#clip0_77_61)">
<path d="M56.0591 28.3407L35.7728 44.9225L34.8182 45.7043C34.6085 45.8705 34.4716 46.1118 34.4364 46.377L34.2228 48.1407L33.6364 53.0952C33.6418 53.1555 33.6231 53.2154 33.5843 53.2619C33.5455 53.3084 33.4899 53.3375 33.4296 53.3429C33.3693 53.3484 33.3093 53.3296 33.2629 53.2908C33.2164 53.252 33.1873 53.1964 33.1819 53.1361L31.5319 48.1816L29.8273 43.1134C29.7546 42.8863 29.7639 42.6408 29.8536 42.4199C29.9433 42.1989 30.1077 42.0164 30.3182 41.9043L51.4273 29.8043L55.4 27.5316C55.9773 27.1952 56.5682 27.9225 56.0591 28.3407Z" fill="#BCFFA0"/>
<path d="M40 0C32.0888 0 24.3552 2.34596 17.7772 6.74122C11.1992 11.1365 6.07234 17.3836 3.04484 24.6927C0.0173315 32.0017 -0.774802 40.0444 0.768607 47.8036C2.31202 55.5629 6.12165 62.6902 11.7157 68.2843C17.3098 73.8784 24.4372 77.688 32.1964 79.2314C39.9556 80.7748 47.9983 79.9827 55.3073 76.9552C62.6164 73.9277 68.8635 68.8008 73.2588 62.2228C77.6541 55.6448 80 47.9113 80 40C80 29.3913 75.7857 19.2172 68.2843 11.7157C60.7828 4.21427 50.6087 0 40 0ZM64.95 23.1545L57.1409 57.6591C56.7727 59.2773 54.7182 60.0091 53.2773 59.0227L41.4864 51.0227L35.4818 56.7C35.237 56.9297 34.9398 57.0963 34.616 57.1852C34.2922 57.274 33.9517 57.2826 33.6238 57.21C33.296 57.1375 32.9909 56.986 32.7348 56.7688C32.4788 56.5516 32.2796 56.2752 32.1546 55.9636L29.9864 49.6L27.8182 43.2364L16.1955 40.0545C15.8705 39.9836 15.5781 39.8073 15.3637 39.553C15.1492 39.2987 15.0248 38.9807 15.0098 38.6484C14.9948 38.3161 15.0899 37.9882 15.2805 37.7155C15.4711 37.4429 15.7464 37.2409 16.0637 37.1409L60.9636 20.9636L61.7909 20.6682C63.5318 20.0591 65.3318 21.4682 64.95 23.1545Z" fill="#BCFFA0"/>
</g>
<defs>
<clipPath id="clip0_77_61">
<rect width="80" height="80" fill="white"/>
</clipPath>
</defs>
</svg>
